<?xml version="1.0" standalone="no"?>
<!DOCTYPE svg PUBLIC "-//W3C//DTD SVG 20010904//EN"
 "http://www.w3.org/TR/2001/REC-SVG-20010904/DTD/svg10.dtd">
<svg version="1.0" xmlns="http://www.w3.org/2000/svg"
 width="392.000000pt" height="392.000000pt" viewBox="0 0 392.000000 392.000000"
 preserveAspectRatio="xMidYMid meet">
<metadata>
Created by potrace 1.14, written by Peter Selinger 2001-2017
</metadata>
<g transform="translate(0.000000,392.000000) scale(0.100000,-0.100000)"
fill="#000000" stroke="none">
<path d="M1950 3869 c0 -3 -19 -6 -42 -6 -24 -1 -54 -4 -68 -8 -14 -3 -32 -8
-40 -10 -8 -2 -16 -4 -17 -5 -2 -2 -6 -3 -10 -4 -47 -12 -93 -31 -93 -38 0 -5
-4 -6 -10 -3 -5 3 -10 1 -10 -5 0 -6 -4 -8 -10 -5 -5 3 -10 2 -10 -3 0 -4 -16
-14 -35 -22 -19 -7 -32 -16 -30 -20 4 -6 -55 -46 -65 -44 -6 1 -124 -119 -127
-129 -1 -5 -19 -29 -41 -53 -22 -25 -46 -58 -53 -72 -8 -15 -20 -33 -26 -40
-7 -7 -13 -22 -13 -33 0 -10 -5 -19 -11 -19 -5 0 -7 -4 -4 -10 3 -5 -1 -23
-10 -39 -8 -17 -16 -42 -17 -56 -1 -14 -5 -25 -9 -25 -4 0 -6 -13 -5 -29 1
-17 -2 -27 -8 -24 -5 4 -7 -1 -3 -10 3 -9 2 -19 -4 -22 -5 -4 -7 -10 -5 -14
15 -24 3 -356 -14 -401 -1 -3 -2 -8 -1 -12 0 -4 -8 -10 -19 -13 -11 -4 -20
-11 -20 -16 0 -5 -6 -9 -12 -9 -28 -1 -98 -81 -92 -105 6 -30 17 -55 24 -55 9
0 63 -108 63 -127 0 -7 3 -13 7 -13 4 0 15 -18 25 -39 9 -22 28 -49 42 -61 14
-12 22 -28 19 -36 -3 -8 -2 -14 3 -14 5 0 8 -12 9 -27 0 -16 1 -30 2 -33 1 -3
3 -16 5 -30 1 -14 6 -54 10 -90 4 -36 8 -73 8 -82 1 -10 4 -18 7 -18 11 0 7
-125 -4 -132 -7 -5 -6 -8 3 -8 11 0 11 -3 1 -15 -7 -8 -9 -15 -4 -15 16 0 10
-120 -6 -130 -8 -5 -11 -10 -6 -10 5 0 -3 -9 -18 -21 -14 -11 -26 -27 -26 -35
0 -8 -4 -14 -9 -14 -5 0 -12 -7 -15 -16 -3 -8 -2 -12 4 -9 6 3 7 -1 4 -9 -3
-9 -11 -16 -18 -16 -7 0 -6 -3 2 -9 10 -6 6 -11 -16 -20 -15 -7 -38 -13 -50
-14 -12 -1 -22 -4 -22 -7 0 -3 -8 -6 -17 -6 -24 -1 -58 -9 -113 -25 -25 -7
-49 -13 -55 -14 -5 0 -16 -4 -23 -9 -7 -4 -16 -5 -19 -2 -3 3 -12 1 -19 -4 -6
-6 -16 -10 -20 -9 -17 4 -144 -13 -144 -20 0 -3 -17 -6 -37 -5 -21 1 -42 -1
-48 -4 -5 -4 -17 -7 -25 -7 -8 0 -19 -3 -25 -7 -14 -8 -98 -32 -107 -30 -5 1
-8 -2 -8 -8 0 -5 -7 -10 -15 -10 -7 0 -19 -8 -24 -17 -6 -10 -11 -14 -11 -9 0
5 -19 -16 -42 -45 -50 -63 -84 -99 -94 -99 -10 0 -64 -61 -64 -72 0 -5 -6 -6
-12 -2 -7 4 -10 4 -6 -1 4 -4 1 -17 -7 -29 -8 -11 -15 -28 -15 -38 0 -9 -9
-22 -20 -28 -11 -6 -18 -15 -15 -20 3 -5 1 -11 -5 -15 -5 -3 -10 -15 -10 -26
0 -23 -26 -76 -46 -97 -11 -11 -14 -87 -14 -408 l0 -394 1960 0 1960 0 0 358
c0 347 -3 407 -20 397 -5 -3 -16 5 -24 17 -9 12 -16 18 -16 14 0 -5 -22 13
-48 40 -59 59 -89 84 -103 84 -6 0 -2 15 8 33 11 17 19 39 18 47 -1 8 -3 24
-3 36 -1 12 -11 31 -22 44 -11 13 -20 27 -20 32 0 5 -4 7 -8 4 -5 -3 -15 10
-22 29 -8 19 -18 35 -22 35 -5 0 -7 4 -4 9 3 5 -1 14 -9 21 -8 7 -12 16 -9 21
3 5 0 9 -7 9 -7 0 -10 3 -7 6 4 3 -1 14 -10 24 -9 10 -22 25 -28 33 -12 14
-43 71 -46 84 -2 5 -10 17 -20 28 -9 11 -17 24 -17 28 0 9 -87 97 -96 97 -3 0
-18 14 -33 31 -59 67 -127 129 -143 129 -8 0 -19 3 -23 8 -4 4 -15 7 -24 8
-10 0 -35 8 -56 17 -22 10 -50 20 -63 23 -13 4 -26 10 -29 15 -3 5 -14 9 -25
9 -10 0 -19 5 -19 10 0 6 -7 10 -15 10 -8 0 -15 5 -15 10 0 6 -6 10 -14 10 -8
0 -29 13 -46 29 -27 24 -31 35 -32 82 -1 30 -6 57 -12 61 -8 5 -7 8 1 8 11 0
11 22 -1 77 -4 18 4 27 43 48 62 34 86 73 96 155 2 19 4 35 5 35 1 0 4 13 6
30 3 16 8 32 12 35 4 3 9 16 11 30 6 42 6 45 12 55 4 6 10 28 14 50 5 22 10
47 12 55 10 41 8 134 -3 156 -7 13 -9 24 -4 24 15 0 -24 67 -51 88 -14 11 -40
22 -59 24 -31 3 -33 6 -34 41 -1 20 3 37 7 37 5 0 6 8 3 18 -3 9 -8 40 -11 67
-6 59 -9 74 -20 98 -4 10 -5 20 -2 24 4 3 -1 19 -9 35 -8 16 -12 33 -9 38 4 6
-1 24 -9 42 -9 17 -16 35 -16 41 0 5 -11 31 -24 57 -13 27 -22 51 -19 54 4 3
1 6 -5 6 -7 0 -12 5 -12 12 0 6 -10 23 -22 36 -13 14 -16 22 -8 17 15 -8 -19
35 -52 66 -10 9 -18 21 -18 28 0 6 -3 11 -7 11 -5 0 -25 16 -45 35 -20 19 -42
35 -48 35 -6 0 -8 5 -5 10 3 6 1 10 -4 10 -10 0 -36 19 -67 48 -8 7 -14 11
-14 7 0 -3 -10 4 -22 15 -13 12 -39 29 -58 38 -19 9 -37 19 -40 23 -3 4 -21 9
-41 12 -20 2 -42 8 -48 11 -6 4 -24 9 -39 12 -15 3 -36 8 -47 11 -11 4 -26 6
-32 5 -7 -2 -13 2 -13 7 0 6 -7 8 -15 5 -8 -4 -23 -3 -32 1 -21 9 -143 13
-143 4z"/>
</g>
</svg>
